<?xml version="1.0" ?><!DOCTYPE svg  PUBLIC '-//W3C//DTD SVG 1.1//EN'  'http://www.w3.org/Graphics/SVG/1.1/DTD/svg11.dtd'><svg enable-background="new 0 0 512 512" height="512px" id="Слой_1" version="1.1" viewBox="0 0 512 512" width="512px" xml:space="preserve" xmlns="http://www.w3.org/2000/svg" xmlns:xlink="http://www.w3.org/1999/xlink"><g id="skype_1_"><g><path d="M511.994,256c0,141.387-114.607,255.988-255.996,255.996C114.613,511.988,0.006,397.387,0.006,256    c0-141.381,114.607-255.996,255.992-255.996C397.387,0.004,511.994,114.619,511.994,256z" fill="#00B0F2"/><path d="M152.086,262.076l5.219,102.109l143.771,143.771c99.936-17.766,179.785-93.461,203.59-191.178    L354.684,166.797l-148.989-25.406L152.086,262.076z" opacity="0.1"/></g><path d="M393.449,289.756c1.383-7.883,2.109-16.016,2.109-24.273   c0-77.076-62.483-139.59-139.561-139.59c-8.289,0-16.391,0.734-24.289,2.123c-13.101-8.975-28.921-14.232-45.998-14.232   c-44.961,0.008-81.418,36.443-81.41,81.404c-0.008,17.094,5.25,32.93,14.234,46.039c-1.375,7.867-2.094,15.998-2.109,24.256   c0,77.078,62.473,139.592,139.572,139.592c8.266-0.008,16.398-0.727,24.289-2.109c13.078,8.984,28.922,14.219,46.007,14.219   c44.952,0,81.405-36.443,81.405-81.404C407.691,318.709,402.434,302.85,393.449,289.756z M315.951,322.529   c-5.313,7.563-13.125,13.484-23.391,17.766c-10.258,4.297-22.43,6.422-36.484,6.422c-16.891,0.008-30.82-2.898-41.78-8.766   c-7.75-4.211-14.063-9.836-18.945-16.891c-4.843-7.023-7.296-13.875-7.296-20.539c-0.008-3.852,1.477-7.172,4.358-9.906   c2.938-2.766,6.648-4.117,11.164-4.117c3.656,0,6.766,1.063,9.281,3.219c2.492,2.117,4.688,5.32,6.453,9.508   c2.18,5.039,4.547,9.195,7.069,12.555c2.516,3.367,6.078,6.148,10.664,8.297c4.586,2.203,10.625,3.297,18.063,3.297   c10.297,0,18.633-2.219,25.031-6.594c6.398-4.406,9.625-9.867,9.625-16.461c0-5.211-1.711-9.445-5.18-12.695   c-3.469-3.266-7.938-5.75-13.438-7.469c-5.477-1.688-12.781-3.508-21.977-5.438c-12.273-2.68-22.563-5.773-30.835-9.273   c-8.258-3.57-14.883-8.367-19.688-14.482c-4.898-6.125-7.304-13.742-7.304-22.773c-0.008-8.688,2.554-16.352,7.702-23.055   c5.102-6.703,12.547-11.891,22.258-15.477c9.741-3.633,21.155-5.414,34.28-5.414c10.492,0,19.602,1.164,27.242,3.586   c7.664,2.383,14.008,5.547,19.07,9.508c5.008,4,8.742,8.164,11.063,12.508c2.336,4.344,3.492,8.609,3.492,12.734   c0,3.813-1.453,7.242-4.32,10.273c-2.938,3.023-6.586,4.563-10.938,4.563c-3.953,0-7-0.93-9.047-2.742   c-2.047-1.82-4.289-4.82-6.688-8.961c-3.117-5.914-6.852-10.586-11.211-13.914c-4.359-3.297-11.359-4.961-20.992-4.961   c-8.945,0-16.125,1.813-21.625,5.43c-5.492,3.594-8.218,7.945-8.218,13c0,3.141,0.921,5.891,2.788,8.148   c1.875,2.297,4.438,4.258,7.703,5.898c3.25,1.656,6.563,2.914,9.922,3.891c3.336,0.914,8.844,2.258,16.555,4.023   c9.617,2.094,18.336,4.391,26.156,6.906c7.805,2.498,14.461,5.514,19.953,9.092c5.508,3.609,9.773,8.086,12.82,13.57   c3.085,5.469,4.608,12.164,4.601,20.094C323.919,306.389,321.247,314.92,315.951,322.529z" fill="#F4F6F9" id="Skype_2_"/></g></svg>