<?xml version="1.0" encoding="iso-8859-1"?>
<!-- Uploaded to: SVG Repo, www.svgrepo.com, Generator: SVG Repo Mixer Tools -->
<svg version="1.1" id="Layer_1" xmlns="http://www.w3.org/2000/svg" xmlns:xlink="http://www.w3.org/1999/xlink" 
	 viewBox="0 0 511.988 511.988" xml:space="preserve">
<path style="fill:#ED5564;" d="M429.458,429.459c-95.81,95.811-251.126,95.811-346.937,0s-95.811-251.135,0-346.945
	c95.802-95.803,251.143-95.803,346.937,0C525.268,178.324,525.268,333.648,429.458,429.459z"/>
<g>
	<rect x="127.994" y="309.324" style="fill:#F4BE8E;" width="255.99" height="42.672"/>
	<path style="fill:#F4BE8E;" d="M255.994,159.996c-70.694,0-127.997,47.749-127.997,106.662h255.994
		C383.991,207.745,326.68,159.996,255.994,159.996z"/>
</g>
<path style="fill:#A85D5D;" d="M383.991,266.658H127.997c-11.781,0-21.335,9.554-21.335,21.335s9.554,21.327,21.335,21.327h255.994
	c11.781,0,21.344-9.546,21.344-21.327S395.772,266.658,383.991,266.658z"/>
<polygon style="fill:#FFCE54;" points="255.994,330.648 149.332,266.658 362.647,266.658 "/>
<g>
	<path style="fill:#EAAD7A;" d="M348.866,242.197c4.156-4.164,4.156-10.914,0-15.085c-4.156-4.164-10.921-4.164-15.093,0
		c-4.156,4.171-4.156,10.921,0,15.085C337.945,246.369,344.71,246.369,348.866,242.197z"/>
	<path style="fill:#EAAD7A;" d="M306.212,199.534c4.156-4.164,4.156-10.922,0-15.085c-4.172-4.164-10.938-4.164-15.094,0
		s-4.156,10.921,0,15.085S302.04,203.698,306.212,199.534z"/>
	<path style="fill:#EAAD7A;" d="M263.532,242.197c4.172-4.164,4.172-10.914,0-15.085c-4.164-4.164-10.913-4.164-15.077,0
		c-4.172,4.171-4.172,10.921,0,15.085C252.619,246.369,259.368,246.369,263.532,242.197z"/>
	<circle style="fill:#EAAD7A;" cx="213.324" cy="191.994" r="10.667"/>
	<path style="fill:#EAAD7A;" d="M178.206,242.197c4.164-4.164,4.164-10.914,0-15.085c-4.172-4.164-10.921-4.164-15.085,0
		c-4.164,4.171-4.164,10.921,0,15.085C167.285,246.369,174.035,246.369,178.206,242.197z"/>
</g>
<path style="fill:#434A54;" d="M429.458,82.514c-2.53-2.523-5.093-4.969-7.718-7.367L75.154,421.74
	c2.391,2.625,4.836,5.188,7.367,7.719s5.109,4.969,7.718,7.375L436.833,90.232C434.442,87.623,431.989,85.045,429.458,82.514z"/>
<path style="fill:#DA4453;" d="M493.238,159.668c-12.874-31.765-31.796-60.256-56.233-84.693
	c-24.421-24.437-52.92-43.351-84.686-56.233C321.649,6.304,289.243,0,255.994,0c-33.242,0-65.655,6.304-96.326,18.741
	c-31.765,12.883-60.257,31.796-84.694,56.233c-24.429,24.437-43.351,52.929-56.233,84.693C6.304,190.339,0,222.744,0,255.994
	c0,33.249,6.304,65.654,18.742,96.311c12.882,31.78,31.804,60.264,56.233,84.701c24.437,24.437,52.929,43.357,84.693,56.232
	c30.671,12.438,63.084,18.75,96.326,18.75c33.249,0,65.655-6.312,96.325-18.75c31.766-12.875,60.265-31.796,84.686-56.232
	c24.438-24.438,43.359-52.921,56.233-84.701c12.438-30.656,18.75-63.062,18.75-96.311
	C511.988,222.744,505.676,190.339,493.238,159.668z M421.928,421.928c-44.328,44.311-103.247,68.716-165.934,68.716
	c-62.679,0-121.607-24.405-165.934-68.717C45.741,377.6,21.335,318.68,21.335,255.994c0-62.687,24.405-121.615,68.725-165.934
	c44.327-44.319,103.255-68.733,165.934-68.733c62.687,0,121.606,24.414,165.934,68.733c44.312,44.319,68.718,103.248,68.718,165.934
	C490.645,318.68,466.239,377.6,421.928,421.928z"/>
</svg>