<svg xmlns="http://www.w3.org/2000/svg" viewBox="0 0 64 64"><defs><style>.cls-1{fill:#00cde2;}.cls-2{fill:#00a4b5;}</style></defs><title>Phone</title><g id="Layer_2" data-name="Layer 2"><g id="Layer_1-2" data-name="Layer 1"><path class="cls-1" d="M64,49.35v2.76a11.11,11.11,0,0,1-.06,1.16A11.88,11.88,0,0,1,52.12,64H52a51.91,51.91,0,0,1-11.64-1.31A52,52,0,0,1,0,12,12.06,12.06,0,0,1,10.74.07,10.68,10.68,0,0,1,12,0h2.64a1.88,1.88,0,0,1,1.78,1.28l5.2,15.62a1.87,1.87,0,0,1-.45,1.92l-2.76,2.76-2.65,2.65a4,4,0,0,0-.89,4.32A38.09,38.09,0,0,0,35.45,49.12a4,4,0,0,0,4.32-.89l2.65-2.65,2.76-2.76a1.87,1.87,0,0,1,1.92-.45l15.62,5.2A1.88,1.88,0,0,1,64,49.35Z"/><path class="cls-2" d="M21.63,16.9a1.87,1.87,0,0,1-.45,1.92l-2.76,2.76L10.74.07A10.68,10.68,0,0,1,12,0h2.64a1.88,1.88,0,0,1,1.78,1.28Z"/><path class="cls-2" d="M64,49.35v2.76a11.11,11.11,0,0,1-.06,1.16L42.42,45.58l2.76-2.76a1.87,1.87,0,0,1,1.92-.45l15.62,5.2A1.88,1.88,0,0,1,64,49.35Z"/></g></g></svg>