<?xml version="1.0" encoding="iso-8859-1"?>
<!-- Uploaded to: SVG Repo, www.svgrepo.com, Generator: SVG Repo Mixer Tools -->
<svg height="800px" width="800px" version="1.1" id="Layer_1" xmlns="http://www.w3.org/2000/svg" xmlns:xlink="http://www.w3.org/1999/xlink" 
	 viewBox="0 0 511.989 511.989" xml:space="preserve">
<path style="fill:#EAC6BB;" d="M362.664,511.989H149.34c-4.25,0-8.094-2.516-9.781-6.406c-2.75-6.312-66.999-155.246-51.749-230.37
	c8.906-43.851,23.078-69.053,34.453-89.303c7.859-13.983,14.062-25.022,16.593-38.538c5.219-27.812-13.484-106.067-21.14-133.872
	c-0.875-3.211-0.219-6.648,1.812-9.297C121.544,1.555,124.684,0,127.997,0h255.994c3.344,0,6.469,1.555,8.484,4.203
	c2.031,2.648,2.688,6.086,1.812,9.297c-7.656,27.804-26.359,106.06-21.141,133.872c2.531,13.516,8.75,24.555,16.594,38.538
	c11.375,20.25,25.53,45.452,34.437,89.303c15.265,75.124-48.983,224.058-51.733,230.37
	C370.758,509.474,366.914,511.989,362.664,511.989z"/>
<path style="fill:#DBAFA5;" d="M255.995,373.336c-5.875,0-10.656,4.766-10.656,10.656v127.997h21.327V383.992
	C266.665,378.101,261.9,373.336,255.995,373.336z"/>
<path style="fill:#EC87C0;" d="M423.928,274.213c-1.375-4.483-5.5-7.546-10.188-7.546H98.28c-4.688,0-8.828,3.062-10.203,7.546
	c-1.375,4.469,0.344,9.328,4.219,11.953l157.73,106.669c1.812,1.219,3.891,1.828,5.969,1.828c2.093,0,4.171-0.609,5.983-1.828
	l157.731-106.669C423.585,283.541,425.303,278.682,423.928,274.213z"/>
<g>
	<path style="fill:#967ADC;" d="M501.333,128.006h-59.577l13.781-13.797c4.172-4.164,4.172-10.914,0-15.085
		c-4.156-4.164-10.922-4.164-15.078,0l-31.999,32c-0.25,0.25-0.484,0.516-0.719,0.789c-0.094,0.117-0.172,0.242-0.266,0.367
		c-0.124,0.156-0.233,0.305-0.343,0.469c-0.109,0.148-0.188,0.305-0.281,0.461c-0.094,0.141-0.172,0.281-0.266,0.43
		c-0.078,0.164-0.156,0.32-0.219,0.484c-0.078,0.156-0.156,0.305-0.219,0.461c-0.062,0.164-0.125,0.32-0.172,0.477
		c-0.062,0.172-0.125,0.336-0.188,0.516c-0.047,0.156-0.078,0.32-0.125,0.484c-0.047,0.172-0.094,0.344-0.125,0.523
		c-0.031,0.188-0.062,0.375-0.078,0.562c-0.031,0.156-0.062,0.312-0.078,0.469c-0.062,0.703-0.062,1.406,0,2.109
		c0.016,0.156,0.047,0.312,0.078,0.469c0.016,0.188,0.047,0.375,0.078,0.562c0.031,0.18,0.078,0.352,0.125,0.531
		c0.047,0.156,0.078,0.32,0.125,0.477c0.062,0.172,0.125,0.344,0.188,0.516c0.047,0.156,0.109,0.312,0.172,0.469
		c0.062,0.164,0.141,0.312,0.219,0.468c0.078,0.164,0.141,0.32,0.219,0.477c0.094,0.148,0.172,0.297,0.266,0.438
		c0.078,0.141,0.156,0.273,0.234,0.406c0.016,0.016,0.031,0.039,0.047,0.055c0.109,0.164,0.234,0.312,0.343,0.469
		c0.094,0.125,0.172,0.25,0.266,0.367c0.234,0.273,0.469,0.539,0.719,0.789l31.999,31.992c2.078,2.086,4.812,3.125,7.531,3.125
		c2.734,0,5.469-1.039,7.547-3.125c4.172-4.164,4.172-10.914,0-15.085l-13.781-13.789h59.577c5.891,0,10.656-4.773,10.656-10.664
		C511.988,132.779,507.224,128.006,501.333,128.006z"/>
	<path style="fill:#967ADC;" d="M105.639,143.224c0.078-0.156,0.156-0.312,0.219-0.476c0.062-0.156,0.125-0.312,0.172-0.469
		c0.062-0.172,0.125-0.344,0.188-0.516c0.047-0.156,0.078-0.32,0.125-0.477c0.031-0.18,0.094-0.352,0.125-0.531
		c0.031-0.188,0.062-0.375,0.078-0.562c0.031-0.156,0.062-0.312,0.078-0.469c0.062-0.703,0.062-1.406,0-2.109
		c-0.016-0.156-0.047-0.305-0.062-0.461c-0.031-0.188-0.062-0.383-0.094-0.57c-0.031-0.18-0.094-0.352-0.125-0.523
		c-0.047-0.164-0.078-0.328-0.125-0.484c-0.062-0.18-0.125-0.344-0.188-0.516c-0.047-0.156-0.109-0.312-0.172-0.477
		c-0.062-0.156-0.141-0.305-0.219-0.461c-0.078-0.164-0.141-0.32-0.219-0.484c-0.094-0.148-0.172-0.289-0.266-0.438
		s-0.172-0.305-0.281-0.453c-0.109-0.164-0.234-0.32-0.344-0.484c-0.094-0.117-0.172-0.234-0.281-0.351
		c-0.219-0.273-0.453-0.539-0.703-0.789l-32-32c-4.156-4.164-10.921-4.164-15.078,0c-4.172,4.171-4.172,10.921,0,15.085
		l13.781,13.797H10.672c-5.891,0-10.671,4.773-10.671,10.664c0,5.89,4.781,10.664,10.671,10.664h59.577l-13.781,13.789
		c-4.172,4.172-4.172,10.922,0,15.085c2.078,2.086,4.812,3.125,7.531,3.125c2.734,0,5.468-1.039,7.546-3.125l32-31.992
		c0.25-0.25,0.484-0.516,0.719-0.789c0.078-0.117,0.172-0.234,0.25-0.352c0.125-0.164,0.25-0.32,0.359-0.484
		c0.016-0.023,0.031-0.039,0.047-0.055c0.078-0.125,0.156-0.266,0.234-0.391c0.078-0.156,0.172-0.297,0.266-0.453
		C105.498,143.536,105.561,143.38,105.639,143.224z"/>
</g>
<path style="opacity:0.2;fill:#FFFFFF;enable-background:new    ;" d="M424.178,275.213c-8.906-43.851-23.062-69.053-34.437-89.303
	c-7.844-13.983-14.062-25.022-16.594-38.538C367.928,119.56,386.632,41.305,394.288,13.5c0.875-3.211,0.219-6.648-1.812-9.297
	C390.46,1.555,387.335,0,383.992,0h-21.328c3.328,0,6.469,1.555,8.484,4.203c2.016,2.648,2.688,6.086,1.797,9.297
	c-7.641,27.804-26.344,106.06-21.125,133.872c2.531,13.516,8.734,24.555,16.594,38.538c11.375,20.25,25.531,45.452,34.438,89.303
	c15.265,75.124-49,224.058-51.734,230.37c-1.703,3.891-5.531,6.406-9.78,6.406h21.327c4.25,0,8.094-2.516,9.781-6.406
	C375.195,499.27,439.443,350.337,424.178,275.213z"/>
</svg>